<svg width="338" height="108" viewBox="0 0 338 108" fill="none" xmlns="http://www.w3.org/2000/svg">
<path d="M32.2653 0.534214C15.7089 0.249306 2.10129 13.3961 1.81638 29.9526L1.03421 75.4054C0.749306 91.9618 13.8965 105.569 30.453 105.854L75.9054 106.637C92.4618 106.921 106.069 93.7742 106.354 77.2177L107.137 31.7649C107.421 15.2085 94.2742 1.60128 77.7178 1.31637L32.2653 0.534214Z" fill="#EF5455"/>
<path d="M77.321 13.0282L30.8497 13.0282C21.2864 13.0282 13.5282 20.7837 13.5282 30.3497L13.5282 76.8219C13.5282 86.3871 21.2864 94.1425 30.8497 94.1425L77.3219 94.1425C86.8898 94.1425 94.6425 86.3871 94.6425 76.821L94.6425 30.3497C94.6425 20.7837 86.8898 13.0282 77.321 13.0282Z" fill="#FAD744"/>
<path d="M70.5995 43.0795V53.5163H79.0329C77.1271 49.3708 74.2121 45.7873 70.5995 43.0795Z" fill="#0F1E5F"/>
<path d="M37.7241 70.9568C40.3509 70.9568 42.4803 68.8274 42.4803 66.2005C42.4803 63.5737 40.3509 61.4443 37.7241 61.4443C35.0973 61.4443 32.9678 63.5737 32.9678 66.2005C32.9678 68.8274 35.0973 70.9568 37.7241 70.9568Z" fill="#0F1E5F"/>
<path d="M68.2529 70.9568C70.8797 70.9568 73.0091 68.8274 73.0091 66.2005C73.0091 63.5737 70.8797 61.4443 68.2529 61.4443C65.6261 61.4443 63.4966 63.5737 63.4966 66.2005C63.4966 68.8274 65.6261 70.9568 68.2529 70.9568Z" fill="#0F1E5F"/>
<path d="M68.5536 55.5622L68.5506 37.7059H28.767V66.3959H31.1812C31.214 62.6734 34.2501 59.6541 37.9803 59.6541C41.7106 59.6541 44.7467 62.6728 44.7795 66.3959H61.71C61.7422 62.6734 64.7789 59.6541 68.5091 59.6541C72.2394 59.6541 75.2755 62.6728 75.3082 66.3959H77.5567C78.8595 66.3959 79.9157 65.3387 79.9157 64.0359V55.5622H68.5536ZM50.775 41.3164C51.4584 40.9564 52.4512 41.4965 52.9908 42.5225C53.5304 43.5486 53.4133 44.6723 52.7299 45.0324C52.0456 45.3919 51.0538 44.8523 50.5137 43.8263C49.9741 42.7997 50.0912 41.676 50.775 41.3164ZM42.7243 45.5525C43.4082 45.1925 44.4005 45.7331 44.9401 46.7581C45.4802 47.7846 45.3631 48.9079 44.6792 49.2679C43.9954 49.6275 43.0026 49.0874 42.463 48.0614C41.9234 47.0358 42.0405 45.9121 42.7243 45.5525ZM53.6526 56.5555C49.6953 58.6378 44.8245 57.4337 42.2967 53.7577L43.3325 53.2125C45.3467 55.7842 49.3189 56.4113 52.6537 54.6559C55.9891 52.902 57.7215 49.2736 56.7425 46.1566L57.7783 45.6119C59.3771 49.7763 57.611 54.4723 53.6526 56.5555Z" fill="#0F1E5F"/>
<path d="M137.028 62.5251C138.441 62.5251 139.545 62.4518 140.338 62.3051C141.138 62.1651 141.738 61.9818 142.138 61.7551C142.545 61.5351 142.801 61.2885 142.908 61.0151C143.008 60.7418 143.058 60.4885 143.058 60.2551C143.058 59.7818 142.948 59.4084 142.728 59.1351C142.508 58.8618 142.155 58.6485 141.668 58.4951C141.188 58.3351 140.548 58.2218 139.748 58.1551C138.955 58.0885 137.998 58.0451 136.878 58.0251C136.225 57.9985 135.455 57.9585 134.568 57.9051C133.681 57.8518 132.768 57.7418 131.828 57.5751C130.888 57.4018 129.961 57.1518 129.048 56.8251C128.135 56.4985 127.318 56.0418 126.598 55.4551C125.878 54.8685 125.298 54.1318 124.858 53.2451C124.411 52.3585 124.188 51.2751 124.188 49.9951V49.4851C124.188 48.3651 124.391 47.2885 124.798 46.2551C125.205 45.2218 125.895 44.3151 126.868 43.5351C127.848 42.7551 129.168 42.1351 130.828 41.6751C132.481 41.2218 134.548 40.9951 137.028 40.9951H138.438C140.238 40.9951 141.988 41.1051 143.688 41.3251C145.381 41.5451 147.038 41.8651 148.658 42.2851V48.7451C146.751 48.2985 144.865 47.9451 142.998 47.6851C141.131 47.4251 139.235 47.2951 137.308 47.2951C135.895 47.2951 134.785 47.3651 133.978 47.5051C133.171 47.6518 132.565 47.8351 132.158 48.0551C131.751 48.2751 131.498 48.5118 131.398 48.7651C131.291 49.0118 131.238 49.2518 131.238 49.4851C131.238 49.9585 131.348 50.3385 131.568 50.6251C131.788 50.9118 132.148 51.1318 132.648 51.2851C133.141 51.4451 133.781 51.5551 134.568 51.6151C135.348 51.6818 136.288 51.7285 137.388 51.7551C138.008 51.7818 138.751 51.8151 139.618 51.8551C140.478 51.8951 141.385 51.9985 142.338 52.1651C143.291 52.3385 144.231 52.5951 145.158 52.9351C146.085 53.2685 146.911 53.7318 147.638 54.3251C148.371 54.9118 148.965 55.6551 149.418 56.5551C149.878 57.4551 150.108 58.5451 150.108 59.8251V60.3351C150.108 61.4551 149.905 62.5251 149.498 63.5451C149.098 64.5584 148.401 65.4585 147.408 66.2451C146.415 67.0251 145.095 67.6451 143.448 68.1051C141.808 68.5585 139.735 68.7851 137.228 68.7851H135.818C133.758 68.7851 131.755 68.6751 129.808 68.4551C127.861 68.2351 125.948 67.9285 124.068 67.5351V60.9551C126.188 61.4284 128.375 61.8085 130.628 62.0951C132.888 62.3818 135.021 62.5251 137.028 62.5251Z" fill="#FAD744"/>
<path d="M155.158 38.6451H156.728L161.418 41.3851V48.5451C162.331 48.2584 163.285 48.0384 164.278 47.8851C165.271 47.7251 166.355 47.6451 167.528 47.6451C169.721 47.6451 171.535 47.8984 172.968 48.4051C174.408 48.9184 175.558 49.6184 176.418 50.5051C177.278 51.3918 177.878 52.4284 178.218 53.6151C178.558 54.8018 178.728 56.0751 178.728 57.4351V68.0051H172.458V58.2151C172.458 57.5884 172.435 56.9751 172.388 56.3751C172.335 55.7751 172.138 55.2551 171.798 54.8151C171.458 54.3684 170.935 54.0084 170.228 53.7351C169.521 53.4618 168.505 53.3251 167.178 53.3251C166.078 53.3251 165.058 53.3951 164.118 53.5351C163.185 53.6818 162.285 53.8984 161.418 54.1851V68.0051H155.158V38.6451Z" fill="#FAD744"/>
<path d="M185.378 48.4251H183.818V68.0051H190.078V51.1651L185.378 48.4251ZM183.428 42.0451V41.5751C183.428 40.7684 183.661 40.0784 184.128 39.5051C184.595 38.9318 185.481 38.6451 186.788 38.6451H187.108C188.408 38.6451 189.295 38.9318 189.768 39.5051C190.235 40.0784 190.468 40.7684 190.468 41.5751V42.0451C190.468 42.8584 190.235 43.5518 189.768 44.1251C189.295 44.6984 188.408 44.9851 187.108 44.9851H186.788C185.481 44.9851 184.595 44.6984 184.128 44.1251C183.661 43.5518 183.428 42.8584 183.428 42.0451Z" fill="#FAD744"/>
<path d="M195.168 68.0051V46.5151C195.168 45.2618 195.345 44.1518 195.698 43.1851C196.051 42.2185 196.605 41.4018 197.358 40.7351C198.118 40.0685 199.111 39.5585 200.338 39.2051C201.565 38.8585 203.065 38.6851 204.838 38.6851C205.571 38.6851 206.275 38.7151 206.948 38.7751C207.628 38.8418 208.231 38.9418 208.758 39.0751V44.7851C208.231 44.6318 207.648 44.5218 207.008 44.4551C206.368 44.3885 205.748 44.3551 205.148 44.3551C204.261 44.3551 203.571 44.4218 203.078 44.5551C202.578 44.6818 202.205 44.8751 201.958 45.1351C201.711 45.4018 201.561 45.7118 201.508 46.0651C201.455 46.4118 201.428 46.8218 201.428 47.2951V48.4251H207.458V53.9051H201.428V68.0051H195.168Z" fill="#FAD744"/>
<path d="M218.538 43.3351V48.4251H224.568V53.9051H218.538V60.1751C218.538 60.6151 218.565 61.0051 218.618 61.3451C218.671 61.6851 218.815 61.9718 219.048 62.2051C219.281 62.4451 219.648 62.6218 220.148 62.7351C220.641 62.8551 221.331 62.9151 222.218 62.9151C222.818 62.9151 223.445 62.8818 224.098 62.8151C224.751 62.7485 225.338 62.6385 225.858 62.4851V68.1951C225.338 68.3285 224.738 68.4285 224.058 68.4951C223.385 68.5618 222.681 68.5951 221.948 68.5951C220.175 68.5951 218.675 68.4251 217.448 68.0851C216.221 67.7451 215.228 67.2551 214.468 66.6151C213.715 65.9751 213.161 65.1785 212.808 64.2251C212.455 63.2718 212.278 62.1818 212.278 60.9551V40.5951H213.838L218.538 43.3351Z" fill="#FAD744"/>
<path d="M247.937 62.6451H244.337L236.977 52.3451V68.0051H229.937V41.7751H236.977L246.137 55.2051L255.297 41.7751H262.347V68.0051H255.297V52.3451L247.937 62.6451Z" fill="#EF5455"/>
<path d="M291.007 56.2551V68.0051H289.437L287.327 66.7851C285.993 67.4651 284.61 67.9684 283.177 68.2951C281.743 68.6217 280.127 68.7851 278.327 68.7851C276.207 68.7851 274.45 68.6084 273.057 68.2551C271.657 67.9017 270.54 67.4184 269.707 66.8051C268.873 66.1917 268.287 65.4884 267.947 64.6951C267.607 63.9017 267.437 63.0717 267.437 62.2051V61.8151C267.437 61.0084 267.613 60.2384 267.967 59.5051C268.32 58.7784 268.92 58.1384 269.767 57.5851C270.613 57.0384 271.723 56.6084 273.097 56.2951C274.463 55.9817 276.167 55.8251 278.207 55.8251C280.76 55.8251 282.94 56.0751 284.747 56.5751C284.72 56.0484 284.647 55.5851 284.527 55.1851C284.407 54.7784 284.153 54.4384 283.767 54.1651C283.373 53.8917 282.79 53.6817 282.017 53.5351C281.25 53.3951 280.227 53.3251 278.947 53.3251C278.24 53.3251 277.483 53.3517 276.677 53.4051C275.87 53.4517 275.053 53.5217 274.227 53.6151C273.407 53.7084 272.6 53.8317 271.807 53.9851C271.007 54.1451 270.267 54.3151 269.587 54.4951V48.6251C270.267 48.4651 271.007 48.3284 271.807 48.2151C272.6 48.0951 273.42 47.9917 274.267 47.9051C275.12 47.8117 275.957 47.7451 276.777 47.7051C277.597 47.6651 278.387 47.6451 279.147 47.6451C281.34 47.6451 283.187 47.8351 284.687 48.2151C286.187 48.5951 287.407 49.1417 288.347 49.8551C289.287 50.5751 289.963 51.4684 290.377 52.5351C290.797 53.6084 291.007 54.8484 291.007 56.2551ZM278.987 63.8951C281.047 63.8951 282.967 63.6217 284.747 63.0751V61.2351C283.853 60.9951 282.913 60.8184 281.927 60.7051C280.933 60.5851 279.823 60.5251 278.597 60.5251C277.423 60.5251 276.51 60.5784 275.857 60.6851C275.203 60.7851 274.72 60.9217 274.407 61.0951C274.093 61.2617 273.897 61.4517 273.817 61.6651C273.743 61.8717 273.707 62.0651 273.707 62.2451C273.707 62.4851 273.743 62.7017 273.817 62.8951C273.897 63.0884 274.113 63.2651 274.467 63.4251C274.82 63.5784 275.347 63.6951 276.047 63.7751C276.753 63.8551 277.733 63.8951 278.987 63.8951Z" fill="#EF5455"/>
<path d="M302.557 43.3351V48.4251H308.587V53.9051H302.557V60.1751C302.557 60.6151 302.583 61.0051 302.637 61.3451C302.69 61.6851 302.833 61.9718 303.067 62.2051C303.3 62.4451 303.663 62.6218 304.157 62.7351C304.657 62.8551 305.35 62.9151 306.237 62.9151C306.837 62.9151 307.463 62.8818 308.117 62.8151C308.77 62.7484 309.357 62.6384 309.877 62.4851V68.1951C309.357 68.3284 308.757 68.4284 308.077 68.4951C307.397 68.5618 306.69 68.5951 305.957 68.5951C304.183 68.5951 302.683 68.4251 301.457 68.0851C300.23 67.7451 299.24 67.2551 298.487 66.6151C297.727 65.9751 297.17 65.1784 296.817 64.2251C296.463 63.2718 296.287 62.1818 296.287 60.9551V40.5951H297.857L302.557 43.3351Z" fill="#EF5455"/>
<path d="M326.087 68.7851H325.337C323.15 68.7851 321.337 68.5317 319.897 68.0251C318.463 67.5117 317.317 66.8117 316.457 65.9251C315.597 65.0384 314.997 64.0017 314.657 62.8151C314.317 61.6284 314.147 60.3551 314.147 58.9951V57.4351C314.147 56.0751 314.317 54.8017 314.657 53.6151C314.997 52.4284 315.597 51.3917 316.457 50.5051C317.317 49.6184 318.463 48.9184 319.897 48.4051C321.337 47.8984 323.15 47.6451 325.337 47.6451H326.437C328.657 47.6451 330.47 47.8084 331.877 48.1351C333.29 48.4617 334.387 48.9117 335.167 49.4851C335.953 50.0584 336.49 50.7251 336.777 51.4851C337.063 52.2384 337.207 53.0451 337.207 53.9051V54.3051C337.207 55.0851 337.107 55.8284 336.907 56.5351C336.713 57.2351 336.25 57.8617 335.517 58.4151C334.79 58.9617 333.713 59.3917 332.287 59.7051C330.867 60.0184 328.93 60.1751 326.477 60.1751C325.303 60.1751 324.22 60.1217 323.227 60.0151C322.233 59.9151 321.293 59.7317 320.407 59.4651C320.433 60.0184 320.527 60.5217 320.687 60.9751C320.84 61.4351 321.133 61.8217 321.567 62.1351C321.993 62.4484 322.6 62.6884 323.387 62.8551C324.167 63.0217 325.21 63.1051 326.517 63.1051C327.143 63.1051 327.84 63.0817 328.607 63.0351C329.38 62.9817 330.177 62.9084 330.997 62.8151C331.817 62.7217 332.627 62.6051 333.427 62.4651C334.22 62.3184 334.957 62.1417 335.637 61.9351V67.8051C334.957 67.9651 334.22 68.1017 333.427 68.2151C332.627 68.3351 331.803 68.4417 330.957 68.5351C330.11 68.6217 329.27 68.6851 328.437 68.7251C327.597 68.7651 326.813 68.7851 326.087 68.7851ZM326.477 52.5351C325.43 52.5351 324.557 52.5951 323.857 52.7151C323.15 52.8351 322.573 53.0117 322.127 53.2451C321.687 53.4784 321.35 53.7651 321.117 54.1051C320.877 54.4451 320.707 54.8351 320.607 55.2751C321.36 55.4884 322.173 55.6417 323.047 55.7351C323.927 55.8217 324.94 55.8651 326.087 55.8651C327.233 55.8651 328.133 55.8217 328.787 55.7351C329.44 55.6417 329.923 55.5217 330.237 55.3751C330.55 55.2351 330.747 55.0784 330.827 54.9051C330.9 54.7384 330.937 54.5617 330.937 54.3751C330.937 54.1951 330.903 53.9951 330.837 53.7751C330.777 53.5484 330.597 53.3451 330.297 53.1651C329.997 52.9851 329.547 52.8351 328.947 52.7151C328.347 52.5951 327.523 52.5351 326.477 52.5351Z" fill="#EF5455"/>
</svg>
