<?xml version="1.0" encoding="UTF-8" standalone="no" ?>
<!DOCTYPE svg PUBLIC "-//W3C//DTD SVG 1.1//EN" "http://www.w3.org/Graphics/SVG/1.1/DTD/svg11.dtd">
<svg xmlns="http://www.w3.org/2000/svg" xmlns:xlink="http://www.w3.org/1999/xlink" version="1.1" width="500" height="500" viewBox="0 0 500 500" xml:space="preserve">
<desc>Created with Fabric.js 3.6.3</desc>
<defs>
</defs>
<g transform="matrix(0.21064024978718107 0.0036247553751814 -0.0036247553751814 0.21064024978718107 134.08535464260126 250.58535548396696)"  >
<path style="stroke: none; stroke-width: 0; stroke-dasharray: none; stroke-linecap: round; stroke-dashoffset: 0; stroke-linejoin: round; stroke-miterlimit: 4; fill: rgb(15,30,95); fill-rule: nonzero; opacity: 1;"  transform=" translate(-347.214464, -408.15557)" d="m 239.32338 158.15557 c -78.60067 0 -142.108912 63.50635 -142.108912 142.10701 l 0 215.78407 c 0 78.60067 63.508242 142.10892 142.108912 142.10892 l 215.78217 0 c 78.60067 0 142.10891 -63.50825 142.10891 -142.10892 l 0 -215.78407 c 0 -78.60066 -63.50824 -142.10701 -142.10891 -142.10701 l -215.78217 0 z" stroke-linecap="round" />
</g>
<g transform="matrix(0.9012696260364448 -2.2075e-16 2.2075e-16 0.9012696260364448 134.08535464260126 250.58535548396696)"  >
<path style="stroke: none; stroke-width: 0; stroke-dasharray: none; stroke-linecap: butt; stroke-dashoffset: 0; stroke-linejoin: miter; stroke-miterlimit: 4; fill: rgb(239,84,85); fill-rule: nonzero; opacity: 1;"  transform=" translate(-50, -50)" d="M 75.781 5 H 24.219 C 13.608 5 5 13.605 5 24.219 v 51.563 C 5 86.395 13.608 95 24.219 95 h 51.563 C 86.398 95 95 86.395 95 75.781 V 24.219 C 95 13.605 86.398 5 75.781 5 z" stroke-linecap="round" />
</g>
<g transform="matrix(0.5114813715950333 0 0 0.5114813715950333 134.08535464260126 250.58535548396696)"  >
<g style=""   >
		<g transform="matrix(1 0 0 1 40.531000000000006 -10.337499999999999)"  >
<path style="stroke: none; stroke-width: 1; stroke-dasharray: none; stroke-linecap: butt; stroke-dashoffset: 0; stroke-linejoin: miter; stroke-miterlimit: 4; fill: rgb(250,215,68); fill-rule: nonzero; opacity: 1;"  transform=" translate(-90.031, -39.1625)" d="M 81.787 28.96 v 20.405 h 16.488 C 94.549 41.26 88.85 34.254 81.787 28.96 z" stroke-linecap="round" />
</g>
		<g transform="matrix(1 0 0 1 -31.988 24.66400000000001)"  >
<circle style="stroke: none; stroke-width: 1; stroke-dasharray: none; stroke-linecap: butt; stroke-dashoffset: 0; stroke-linejoin: miter; stroke-miterlimit: 4; fill: rgb(250,215,68); fill-rule: nonzero; opacity: 1;"  cx="0" cy="0" r="9.299" />
</g>
		<g transform="matrix(1 0 0 1 27.699000000000005 24.66400000000001)"  >
<circle style="stroke: none; stroke-width: 1; stroke-dasharray: none; stroke-linecap: butt; stroke-dashoffset: 0; stroke-linejoin: miter; stroke-miterlimit: 4; fill: rgb(250,215,68); fill-rule: nonzero; opacity: 1;"  cx="0" cy="0" r="9.299" />
</g>
		<g transform="matrix(1 0 0 1 0.5004999999999953 -3)"  >
<path style="stroke: none; stroke-width: 1; stroke-dasharray: none; stroke-linecap: butt; stroke-dashoffset: 0; stroke-linejoin: miter; stroke-miterlimit: 4; fill: rgb(250,215,68); fill-rule: nonzero; opacity: 1;"  transform=" translate(-50.000499999999995, -46.5)" d="M 77.787 53.365 l -0.006 -34.911 H 0 v 56.092 h 4.72 c 0.064 -7.278 6 -13.181 13.293 -13.181 s 13.229 5.902 13.293 13.181 h 33.101 c 0.063 -7.278 6 -13.181 13.293 -13.181 s 13.229 5.902 13.293 13.181 h 4.396 c 2.547 0 4.612 -2.067 4.612 -4.614 V 53.365 H 77.787 z M 43.028 25.513 c 1.336 -0.704 3.277 0.352 4.332 2.358 c 1.055 2.006 0.826 4.203 -0.51 4.907 c -1.338 0.703 -3.277 -0.352 -4.333 -2.358 C 41.462 28.413 41.691 26.216 43.028 25.513 z M 27.288 33.795 c 1.337 -0.704 3.277 0.353 4.332 2.357 c 1.056 2.007 0.827 4.203 -0.51 4.907 c -1.337 0.703 -3.278 -0.353 -4.333 -2.359 C 25.722 36.695 25.951 34.498 27.288 33.795 z M 48.654 55.307 c -7.737 4.071 -17.26 1.717 -22.202 -5.47 l 2.025 -1.066 c 3.938 5.028 11.704 6.254 18.224 2.822 c 6.521 -3.429 9.908 -10.523 7.994 -16.617 l 2.025 -1.065 C 59.846 42.053 56.393 51.234 48.654 55.307 z" stroke-linecap="round" />
</g>
</g>
</g>
<g transform="matrix(1 0 0 1 331.0078800516226 252.70510548396697)" style=""  ><path fill="#EF5455" opacity="1" d="M-113.98 6.82L-113.98 6.82Q-111.86 6.82-110.67 6.60Q-109.47 6.39-108.87 6.05Q-108.26 5.72-108.10 5.31Q-107.95 4.90-107.95 4.55L-107.95 4.55Q-107.95 3.84-108.28 3.43Q-108.61 3.02-109.34 2.79Q-110.06 2.55-111.26 2.45Q-112.45 2.35-114.13 2.32L-114.13 2.32Q-115.11 2.28-116.44 2.20Q-117.77 2.12-119.18 1.87Q-120.59 1.61-121.96 1.12Q-123.33 0.63-124.41-0.25Q-125.49-1.13-126.15-2.46Q-126.82-3.79-126.82-5.71L-126.82-5.71L-126.82-6.22Q-126.82-7.90-126.21-9.45Q-125.60-11.00-124.14-12.17Q-122.67-13.34-120.18-14.03Q-117.70-14.71-113.98-14.71L-113.98-14.71L-112.57-14.71Q-109.87-14.71-107.32-14.38Q-104.78-14.05-102.35-13.42L-102.35-13.42L-102.35-6.96Q-105.21-7.63-108.01-8.02Q-110.81-8.41-113.70-8.41L-113.70-8.41Q-115.82-8.41-117.03-8.20Q-118.24-7.98-118.85-7.65Q-119.46-7.32-119.61-6.94Q-119.77-6.57-119.77-6.22L-119.77-6.22Q-119.77-5.51-119.44-5.08Q-119.11-4.65-118.36-4.42Q-117.62-4.18-116.44-4.09Q-115.27-3.99-113.62-3.95L-113.62-3.95Q-112.69-3.91-111.39-3.85Q-110.10-3.79-108.67-3.54Q-107.24-3.28-105.85-2.77Q-104.46-2.27-103.37-1.38Q-102.27-0.50-101.59 0.85Q-100.90 2.20-100.90 4.12L-100.90 4.12L-100.90 4.63Q-100.90 6.31-101.51 7.84Q-102.11 9.36-103.60 10.54Q-105.09 11.71-107.56 12.40Q-110.02 13.08-113.78 13.08L-113.78 13.08L-115.19 13.08Q-118.28 13.08-121.20 12.75Q-124.12 12.42-126.94 11.83L-126.94 11.83L-126.94 5.25Q-123.76 5.96-120.38 6.39Q-116.99 6.82-113.98 6.82Z"/><path fill="#EF5455" opacity="1" d="M-95.85-17.06L-94.28-17.06L-89.59-14.32L-89.59-7.16Q-88.22-7.59-86.73-7.82Q-85.24-8.06-83.48-8.06L-83.48-8.06Q-80.19-8.06-78.04-7.30Q-75.88-6.53-74.59-5.20Q-73.30-3.87-72.79-2.09Q-72.28-0.31-72.28 1.73L-72.28 1.73L-72.28 12.30L-78.55 12.30L-78.55 2.51Q-78.55 1.57-78.62 0.67Q-78.70-0.23-79.21-0.89Q-79.72-1.56-80.78-1.97Q-81.84-2.38-83.83-2.38L-83.83-2.38Q-85.48-2.38-86.89-2.17Q-88.29-1.95-89.59-1.52L-89.59-1.52L-89.59 12.30L-95.85 12.30L-95.85-17.06Z"/><path fill="#EF5455" opacity="1" d="M-65.63-7.28L-67.19-7.28L-67.19 12.30L-60.93 12.30L-60.93-4.54L-65.63-7.28ZM-67.58-13.66L-67.58-14.13Q-67.58-15.34-66.88-16.20Q-66.18-17.06-64.22-17.06L-64.22-17.06L-63.90-17.06Q-61.95-17.06-61.24-16.20Q-60.54-15.34-60.54-14.13L-60.54-14.13L-60.54-13.66Q-60.54-12.44-61.24-11.58Q-61.95-10.72-63.90-10.72L-63.90-10.72L-64.22-10.72Q-66.18-10.72-66.88-11.58Q-67.58-12.44-67.58-13.66L-67.58-13.66Z"/><path fill="#EF5455" opacity="1" d="M-55.84 12.30L-55.84-9.19Q-55.84-11.07-55.31-12.52Q-54.78-13.97-53.65-14.97Q-52.51-15.97-50.67-16.50Q-48.83-17.02-46.17-17.02L-46.17-17.02Q-45.07-17.02-44.06-16.93Q-43.04-16.83-42.25-16.63L-42.25-16.63L-42.25-10.92Q-43.04-11.15-44.00-11.25Q-44.96-11.35-45.86-11.35L-45.86-11.35Q-47.19-11.35-47.93-11.15Q-48.68-10.96-49.05-10.57Q-49.42-10.17-49.50-9.64Q-49.58-9.12-49.58-8.41L-49.58-8.41L-49.58-7.28L-43.55-7.28L-43.55-1.80L-49.58-1.80L-49.58 12.30L-55.84 12.30Z"/><path fill="#EF5455" opacity="1" d="M-32.47-12.37L-32.47-7.28L-26.44-7.28L-26.44-1.80L-32.47-1.80L-32.47 4.47Q-32.47 5.13-32.39 5.64Q-32.31 6.15-31.96 6.50Q-31.61 6.86-30.86 7.03Q-30.12 7.21-28.79 7.21L-28.79 7.21Q-27.89 7.21-26.91 7.11Q-25.93 7.01-25.15 6.78L-25.15 6.78L-25.15 12.49Q-25.93 12.69-26.95 12.79Q-27.96 12.89-29.06 12.89L-29.06 12.89Q-31.72 12.89-33.56 12.38Q-35.40 11.87-36.54 10.91Q-37.67 9.95-38.20 8.52Q-38.73 7.09-38.73 5.25L-38.73 5.25L-38.73-15.11L-37.17-15.11L-32.47-12.37Z"/></g><g transform="matrix(1 0 0 1 436.47668965626735 252.70510548396697)" style=""  ><path fill="#0F1E5F" opacity="1" d="M-108.54 6.94L-112.14 6.94L-119.50-3.36L-119.50 12.30L-126.54 12.30L-126.54-13.93L-119.50-13.93L-110.34-0.50L-101.18-13.93L-94.13-13.93L-94.13 12.30L-101.18 12.30L-101.18-3.36L-108.54 6.94Z"/><path fill="#0F1E5F" opacity="1" d="M-65.47 0.55L-65.47 12.30L-67.04 12.30L-69.15 11.08Q-71.15 12.10-73.30 12.59Q-75.45 13.08-78.15 13.08L-78.15 13.08Q-81.33 13.08-83.42 12.55Q-85.52 12.02-86.77 11.10Q-88.02 10.18-88.53 8.99Q-89.04 7.80-89.04 6.50L-89.04 6.50L-89.04 6.11Q-89.04 4.90-88.51 3.80Q-87.98 2.71-86.71 1.88Q-85.44 1.06-83.38 0.59Q-81.33 0.12-78.27 0.12L-78.27 0.12Q-74.44 0.12-71.73 0.87L-71.73 0.87Q-71.77 0.08-71.95-0.52Q-72.13-1.13-72.71-1.54Q-73.30-1.95-74.46-2.17Q-75.61-2.38-77.53-2.38L-77.53-2.38Q-78.59-2.38-79.80-2.30Q-81.01-2.23-82.25-2.09Q-83.48-1.95-84.67-1.72Q-85.87-1.48-86.89-1.21L-86.89-1.21L-86.89-7.08Q-85.87-7.32-84.67-7.49Q-83.48-7.67-82.21-7.80Q-80.93-7.94-79.70-8.00Q-78.47-8.06-77.33-8.06L-77.33-8.06Q-74.04-8.06-71.79-7.49Q-69.54-6.92-68.13-5.85Q-66.72-4.77-66.10-3.17Q-65.47-1.56-65.47 0.55L-65.47 0.55ZM-77.49 8.19L-77.49 8.19Q-74.40 8.19-71.73 7.37L-71.73 7.37L-71.73 5.53Q-73.07 5.17-74.55 5.00Q-76.04 4.82-77.88 4.82L-77.88 4.82Q-79.64 4.82-80.62 4.98Q-81.60 5.13-82.07 5.39Q-82.54 5.64-82.66 5.96Q-82.77 6.27-82.77 6.54L-82.77 6.54Q-82.77 6.90-82.66 7.19Q-82.54 7.48-82.01 7.72Q-81.48 7.95-80.43 8.07Q-79.37 8.19-77.49 8.19Z"/><path fill="#0F1E5F" opacity="1" d="M-53.92-12.37L-53.92-7.28L-47.89-7.28L-47.89-1.80L-53.92-1.80L-53.92 4.47Q-53.92 5.13-53.84 5.64Q-53.76 6.15-53.41 6.50Q-53.06 6.86-52.32 7.03Q-51.57 7.21-50.24 7.21L-50.24 7.21Q-49.34 7.21-48.36 7.11Q-47.38 7.01-46.60 6.78L-46.60 6.78L-46.60 12.49Q-47.38 12.69-48.40 12.79Q-49.42 12.89-50.52 12.89L-50.52 12.89Q-53.18 12.89-55.02 12.38Q-56.86 11.87-57.99 10.91Q-59.13 9.95-59.66 8.52Q-60.19 7.09-60.19 5.25L-60.19 5.25L-60.19-15.11L-58.62-15.11L-53.92-12.37Z"/><path fill="#0F1E5F" opacity="1" d="M-30.39 13.08L-31.14 13.08Q-34.42 13.08-36.58 12.32Q-38.73 11.55-40.02 10.22Q-41.31 8.89-41.82 7.11Q-42.33 5.33-42.33 3.29L-42.33 3.29L-42.33 1.73Q-42.33-0.31-41.82-2.09Q-41.31-3.87-40.02-5.20Q-38.73-6.53-36.58-7.30Q-34.42-8.06-31.14-8.06L-31.14-8.06L-30.04-8.06Q-26.71-8.06-24.60-7.57Q-22.48-7.08-21.31-6.22Q-20.13-5.36-19.70-4.22Q-19.27-3.09-19.27-1.80L-19.27-1.80L-19.27-1.40Q-19.27-0.23-19.57 0.83Q-19.86 1.88-20.96 2.71Q-22.05 3.53-24.19 4.00Q-26.32 4.47-30.00 4.47L-30.00 4.47Q-31.76 4.47-33.25 4.31Q-34.74 4.16-36.07 3.76L-36.07 3.76Q-36.03 4.59-35.79 5.27Q-35.56 5.96-34.91 6.43Q-34.27 6.90-33.09 7.15Q-31.92 7.40-29.96 7.40L-29.96 7.40Q-29.02 7.40-27.87 7.33Q-26.71 7.25-25.48 7.11Q-24.25 6.97-23.05 6.76Q-21.86 6.54-20.84 6.23L-20.84 6.23L-20.84 12.10Q-21.86 12.34-23.05 12.51Q-24.25 12.69-25.52 12.83Q-26.79 12.96-28.04 13.02Q-29.30 13.08-30.39 13.08L-30.39 13.08ZM-30.00-3.17L-30.00-3.17Q-31.57-3.17-32.62-2.99Q-33.68-2.81-34.35-2.46Q-35.01-2.11-35.36-1.60Q-35.72-1.09-35.87-0.43L-35.87-0.43Q-34.74-0.11-33.43 0.03Q-32.11 0.16-30.39 0.16L-30.39 0.16Q-28.67 0.16-27.69 0.03Q-26.71-0.11-26.24-0.33Q-25.77-0.54-25.65-0.80Q-25.54-1.05-25.54-1.33L-25.54-1.33Q-25.54-1.60-25.64-1.93Q-25.73-2.27-26.18-2.54Q-26.63-2.81-27.53-2.99Q-28.43-3.17-30.00-3.17Z"/></g></svg>